<svg width="186" height="40" viewBox="0 0 186 40" fill="none" xmlns="http://www.w3.org/2000/svg">
<path d="M3.87671 20.1779C3.68609 12.2523 16.0129 12.2523 15.8859 20.1134C15.9494 24.044 12.963 26.0415 9.91306 26.0415C6.86311 26.0415 3.81317 24.1084 3.87671 20.1779ZM2.92361 13.0255C0.953855 15.023 0.000748539 17.4072 0.000748539 20.1134V38.0909C-0.0627919 40.6683 3.94026 40.6039 3.87671 38.0909V28.1034C10.0401 33.1938 20.0795 28.2323 19.7618 20.1134C20.016 14.1854 14.7421 10.0615 9.59535 10.0615C7.18082 10.126 4.76628 11.0281 2.92361 13.0255Z" fill="white"/>
<path d="M22.6214 2.0074V28.0393C22.5579 29.779 24.7818 30.7456 25.9891 29.4569C26.3703 29.0702 26.561 28.6192 26.561 28.0393V2.0074C26.561 0.718694 25.6079 0.0743408 24.5912 0.0743408C23.5746 0.138776 22.6214 0.718694 22.6214 2.0074Z" fill="white"/>
<path d="M45.0518 19.9844C45.1153 23.0773 43.2091 26.1702 39.3331 26.0414C35.2666 26.1702 33.3603 23.0773 33.4239 19.9844C33.4874 16.956 35.4572 13.8631 39.3331 13.9275C43.082 13.8631 45.0518 16.956 45.0518 19.9844ZM32.2802 12.961C23.5751 21.5953 35.6478 35.3845 45.1789 27.9744C45.2424 30.4874 49.1184 30.6163 49.0548 27.9744V20.1133C49.3725 14.1208 44.2258 9.99695 39.0154 9.99695C36.6009 9.99695 34.1864 10.899 32.2802 12.961Z" fill="white"/>
<path d="M51.4688 15.9894C51.4688 19.0179 53.375 22.0464 57.2509 21.9819C61.6988 22.6263 57.6957 28.7476 55.2812 24.8815C52.3583 20.4355 49.4355 26.0414 53.5656 28.7476C59.1571 33.5159 66.6549 24.8171 61.4446 19.7911C59.9832 17.8581 57.5686 18.5669 55.853 17.407C53.5656 15.1518 57.9499 12.3166 59.0936 15.0229C62.6519 20.4999 66.0195 10.448 57.2509 9.99695H57.1238C53.375 9.99695 51.5323 12.961 51.4688 15.9894Z" fill="white"/>
<path d="M71.6106 0.00329227C68.2429 -0.190014 70.1491 8.18658 69.7044 9.99077H68.8148C67.1627 9.92634 64.8753 9.8619 64.8753 11.9883C64.8117 14.1146 67.1627 14.0502 68.8148 13.9858H69.6408V28.0971C69.5773 29.0636 70.5304 30.159 71.547 30.0946C72.6272 30.159 73.5803 29.0636 73.5168 28.0971V13.9278H76.3126C77.5834 13.9278 78.2188 12.9612 78.2188 11.9303C78.2188 10.8993 77.5834 9.93278 76.3126 9.93278H73.5168C73.1355 8.25746 74.9782 0.00329227 71.8012 0.00329227H71.6106Z" fill="white"/>
<path d="M80.3794 11.9301C80.5701 12.4456 79.8076 29.8432 80.9513 29.4565C82.0315 30.7452 84.319 29.7787 84.2554 28.039V11.9301C84.2554 10.6414 83.3023 9.99706 82.2857 9.99706C81.3961 9.99706 80.3794 10.6414 80.3794 11.9301ZM82.4127 2.00708C81.1419 2.00708 80.5065 2.97361 80.5065 4.00458C80.5065 5.03554 81.1419 6.00207 82.4127 6.00207C83.6835 6.06651 84.319 5.03554 84.319 4.00458C84.2554 2.97361 83.62 2.00708 82.4127 2.00708Z" fill="white"/>
<path d="M87.3685 2.0074V28.0393C87.305 29.779 89.5289 30.7456 90.7362 29.4569C91.1174 29.0702 91.308 28.6192 91.308 28.0393V2.0074C91.308 0.718694 90.3549 0.0743408 89.3383 0.0743408C88.3852 0.138776 87.3685 0.718694 87.3685 2.0074Z" fill="white"/>
<path d="M94.3584 11.9301V28.039C94.3584 29.1344 95.248 30.0365 96.3282 30.0365C97.3448 30.0365 98.2979 29.1344 98.2344 28.039V11.9301C98.2344 10.6414 97.2813 9.99706 96.2646 9.99706C95.3115 9.99706 94.3584 10.6414 94.3584 11.9301ZM96.3282 2.00708C95.0573 2.00708 94.4219 2.97361 94.4219 4.00458C94.4219 5.03554 95.0573 6.00207 96.3282 6.00207C97.599 6.06651 98.2344 5.03554 98.2344 4.00458C98.2344 2.97361 97.599 2.00708 96.3282 2.00708Z" fill="white"/>
<path d="M101.157 28.0393C101.093 30.6167 105.16 30.6167 105.033 28.0393V19.9849C104.842 12.0594 117.169 12.1238 117.042 19.9849V28.0393C116.978 30.6167 120.981 30.6167 120.918 28.0393C121.363 20.1782 121.299 10.2552 111.006 9.93298C100.776 10.2552 100.712 20.1138 101.157 28.0393Z" fill="white"/>
<path d="M27.26 39.8303H26.5611L25.3538 35.7065C25.2903 35.5132 25.2267 35.3199 25.1632 34.9977C25.0997 34.7399 25.0361 34.5466 25.0361 34.4822C24.9726 34.8688 24.8455 35.2554 24.7184 35.7065L23.5112 39.8303H22.8122L21.1602 33.6445H21.9226L22.8757 37.4462C23.0028 37.9617 23.1299 38.4772 23.1935 38.9282C23.257 38.4127 23.3841 37.8973 23.5112 37.3818L24.5913 33.6445H25.4174L26.5611 37.4462C26.6882 37.8973 26.8153 38.3483 26.8788 38.9282C26.9423 38.5416 27.0059 38.0261 27.1965 37.4462L28.1496 33.6445H28.9121L27.26 39.8303Z" fill="white"/>
<path d="M45.4322 39.8303H42.001V33.6445H45.4322V34.2889H42.7635V36.2864H45.3051V36.9307H42.7635V39.186H45.4322V39.8303Z" fill="white"/>
<path d="M58.9668 33.6445H60.6824C61.5084 33.6445 62.0803 33.7734 62.4615 34.0311C62.8428 34.2889 63.0334 34.6755 63.0334 35.191C63.0334 35.5776 62.9063 35.8353 62.7157 36.0931C62.5251 36.3508 62.2074 36.4797 61.8261 36.5441V36.6086C62.7792 36.8019 63.224 37.2529 63.224 38.0906C63.224 38.6705 63.0334 39.0571 62.6521 39.3793C62.2709 39.7015 61.7626 39.8303 61.1272 39.8303H58.9668V33.6445ZM59.6657 36.2864H60.8095C61.3178 36.2864 61.699 36.2219 61.8897 36.0286C62.0803 35.8998 62.2074 35.5776 62.2074 35.191C62.2074 34.8688 62.0803 34.6111 61.8261 34.4178C61.572 34.2889 61.1907 34.16 60.6824 34.16H59.6657V36.2864ZM59.6657 36.9307V39.2504H60.9365C61.4449 39.2504 61.8261 39.186 62.0803 38.9282C62.3344 38.7349 62.4615 38.4127 62.4615 38.0261C62.4615 37.6395 62.3344 37.3818 62.0803 37.1885C61.8261 36.9952 61.4449 36.9307 60.9365 36.9307H59.6657Z" fill="white"/>
<path d="M94.5488 38.2199C94.5488 38.7354 94.3581 39.1864 93.9769 39.5086C93.5956 39.8308 93.0873 39.9597 92.3884 39.9597C91.6894 39.9597 91.1176 39.8952 90.7363 39.7019V38.9931C90.9905 39.122 91.2447 39.1864 91.5624 39.2509C91.8801 39.3153 92.1342 39.3153 92.4519 39.3153C92.8967 39.3153 93.2779 39.2509 93.5321 39.0576C93.7863 38.8643 93.9133 38.6065 93.9133 38.2843C93.9133 38.091 93.8498 37.8977 93.7863 37.7689C93.7227 37.64 93.5321 37.5111 93.3415 37.3823C93.1509 37.2534 92.8332 37.1245 92.4519 36.9956C91.8801 36.8023 91.4988 36.5446 91.2447 36.2869C90.9905 36.0291 90.8634 35.6425 90.8634 35.1915C90.8634 34.7404 91.054 34.3538 91.3717 34.0316C91.753 33.7739 92.1978 33.5806 92.7696 33.5806C93.405 33.5806 93.9134 33.7094 94.4217 33.9027L94.2311 34.5471C93.7227 34.3538 93.2144 34.2249 92.7696 34.2249C92.3884 34.2249 92.0707 34.2894 91.8801 34.4827C91.6894 34.676 91.5624 34.8693 91.5624 35.1915C91.5624 35.3848 91.6259 35.5781 91.6894 35.7069C91.753 35.8358 91.8801 35.9647 92.0707 36.0935C92.2613 36.2224 92.5155 36.3513 92.8967 36.4802C93.5321 36.7379 93.9769 36.9312 94.2311 37.2534C94.4217 37.4467 94.5488 37.7689 94.5488 38.2199Z" fill="white"/>
<path d="M109.799 39.8303H109.1V34.2889H107.193V33.6445H111.768V34.2889H109.862L109.799 39.8303Z" fill="white"/>
<path d="M129.432 33.645V37.64C129.432 38.3488 129.242 38.9287 128.797 39.3153C128.352 39.7019 127.78 39.8952 127.081 39.8952C126.319 39.8952 125.747 39.7019 125.366 39.3153C124.985 38.9287 124.794 38.3488 124.794 37.64V33.645H125.493V37.7044C125.493 38.2199 125.62 38.6065 125.938 38.8643C126.192 39.122 126.637 39.2509 127.145 39.2509C127.653 39.2509 128.035 39.122 128.352 38.8643C128.606 38.6065 128.797 38.2199 128.797 37.64V33.5806H129.432V33.645Z" fill="white"/>
<path d="M148.113 36.673C148.113 37.704 147.859 38.4772 147.287 38.9927C146.715 39.5081 145.953 39.8303 144.936 39.8303H143.221V33.6445H145.063C146.016 33.6445 146.779 33.9023 147.287 34.4178C147.859 34.9977 148.113 35.7065 148.113 36.673ZM147.351 36.7374C147.351 35.8998 147.16 35.3199 146.779 34.9332C146.398 34.5466 145.762 34.2889 145 34.2889H143.983V39.2504H144.873C145.699 39.2504 146.334 39.0571 146.779 38.6061C147.16 38.155 147.351 37.5107 147.351 36.7374Z" fill="white"/>
<path d="M161.648 39.8303V33.6445H162.347V39.8303H161.648Z" fill="white"/>
<path d="M181.472 36.7379C181.472 37.7044 181.218 38.4776 180.71 39.0576C180.202 39.6375 179.503 39.8952 178.677 39.8952C177.787 39.8952 177.088 39.6375 176.58 39.0576C176.072 38.4776 175.817 37.7044 175.817 36.6734C175.817 35.6425 176.072 34.8693 176.58 34.3538C177.088 33.7739 177.787 33.5161 178.677 33.5161C179.566 33.5161 180.265 33.7739 180.71 34.3538C181.282 34.9337 181.472 35.7069 181.472 36.7379ZM176.643 36.7379C176.643 37.5755 176.834 38.2199 177.152 38.6709C177.533 39.122 178.041 39.3153 178.677 39.3153C179.376 39.3153 179.884 39.122 180.202 38.6709C180.519 38.2199 180.71 37.5755 180.71 36.7379C180.71 35.9002 180.519 35.2559 180.202 34.8693C179.884 34.4826 179.376 34.2249 178.677 34.2249C177.978 34.2249 177.469 34.4182 177.152 34.8693C176.834 35.2559 176.643 35.9002 176.643 36.7379Z" fill="white"/>
<path d="M156.119 27.9744C156.246 30.6163 152.307 30.4874 152.243 27.9744C142.712 35.3845 130.64 21.5953 139.345 12.961C145.19 6.58188 156.564 11.2857 156.119 20.1133V27.9744ZM146.398 26.0414C154.086 26.2991 153.959 13.7986 146.398 13.9275C138.646 13.7986 138.391 26.2991 146.398 26.0414Z" fill="white"/>
<path d="M162.728 28.0388C162.791 30.6162 158.788 30.6162 158.852 28.0388V19.9844C157.581 14.4429 168.701 5.74414 170.734 11.9299C170.734 12.8965 169.844 13.9919 168.764 13.9274C161.457 13.7341 162.791 23.2061 162.728 28.0388Z" fill="white"/>
<path d="M183.187 9.99692C185.729 9.93248 185.729 13.9919 183.187 13.9275H180.391V28.0388C180.391 29.0053 179.502 30.1007 178.422 30.0363C177.405 30.1007 176.452 29.0053 176.515 28.0388V13.9275C174.927 13.9275 171.686 14.443 171.75 11.93C171.686 9.48144 174.991 9.99692 176.515 9.99692C176.96 8.19273 175.054 -0.183865 178.422 0.00944056C181.789 -0.248301 179.947 8.19273 180.391 9.99692H183.187Z" fill="white"/>
</svg>
